<?xml version="1.0" encoding="UTF-8"?>
<svg id="Camada_2" data-name="Camada 2" xmlns="http://www.w3.org/2000/svg" viewBox="0 0 141.11 139.27">
  <defs>
    <style>
      .cls-1 {
        fill: #de7981;
        stroke-width: 0px;
      }
    </style>
  </defs>
  <g id="Camada_1-2" data-name="Camada 1">
    <g>
      <path class="cls-1" d="m141.11,70.76C137.88,164.3-1.72,160.84.02,67.81c2.78-91.86,141.26-89.93,141.1,2.95ZM6.17,64.91c-3.89,86.1,122.93,91.75,128.49,9.12C140.11-11.08,11.39-18.3,6.17,64.91Z"/>
      <path class="cls-1" d="m70.63,28.57c2.03-.38,2.61.5,2.5,2.42-2.67,16.54,11.83,3.49,20.38,17.54,1.08,2.95-4.1,6.41-6.03,2.72-5.97-6.9-30.45-8.42-33.64,1.4-2.69,25.28,44.36,3.38,39.81,32.37,1.29,10.76-12.31,14.63-19.97,14.59-2.11,2.68,2.17,13.06-4.88,11.02-1.15-13.2-1.28-10.15-13.66-12.85-5.28-1.75-12.54-14.41-2.22-10.51,6.61,8.03,28.5,8.62,34.27.25,3.02-8.2-3.18-12.52-10.01-14.07-6.79.11-13.3-1.89-20.07-2.78-14.78-4.55-12.36-31.09,4.51-30.6,12.27,3.34,1.63-11.23,9.03-11.51Z"/>
    </g>
  </g>
</svg>